<?xml version="1.0" encoding="utf-8"?>
<!-- Generator: Adobe Illustrator 18.0.0, SVG Export Plug-In . SVG Version: 6.00 Build 0)  -->
<!DOCTYPE svg PUBLIC "-//W3C//DTD SVG 1.1//EN" "http://www.w3.org/Graphics/SVG/1.1/DTD/svg11.dtd">
<svg version="1.1" id="MY_NEW_LOGO" xmlns="http://www.w3.org/2000/svg" xmlns:xlink="http://www.w3.org/1999/xlink" x="0px"
	 y="0px" viewBox="0 0 696.1 260.5" enable-background="new 0 0 696.1 260.5" xml:space="preserve">
<g>
	<path d="M144,207.1h199.7c-0.3,4.2-4.1,15.6-5.9,18.2H144V207.1z"/>
	<path d="M144,34.5h194.1c1.7,3,5.4,14.3,5.9,18.2H144V34.5z"/>
	<path d="M180,138h138.5c4.5,3.2,12.9,13.6,16.2,18.2H180V138z"/>
	<path d="M288,190.8h57.7c0.1-4.8-1.7-14.6-3.2-18.2H288V190.8z"/>
	<path d="M180,121.7h138.7c4.5-3.2,12.8-13.6,16.1-18.2H180V121.7z"/>
	<path d="M288,69h57.5c0,4.2-1.6,14.6-3,18.2H288V69z"/>
	<path d="M144,241.6h180.5c-16,13.6-30.1,18.2-54.9,18.2h-17.9H144V241.6z"/>
	<path d="M144,18.2h180.5C308.5,4.7,294.4,0,269.6,0h-17.9H144V18.2z"/>
	<rect x="0" y="0" width="126" height="18.2"/>
	<rect x="0" y="34.5" width="126" height="18.2"/>
	<rect x="0" y="207.1" width="126" height="18.2"/>
	<rect x="36" y="172.5" width="54" height="18.2"/>
	<rect x="36" y="138" width="54" height="18.2"/>
	<rect x="36" y="103.5" width="54" height="18.2"/>
	<rect x="36" y="69" width="54" height="18.2"/>
	<rect x="180" y="172.5" width="54" height="18.2"/>
	<rect x="180" y="69" width="54" height="18.2"/>
	<polygon points="479,190.8 529,190.8 535.3,172.5 472.7,172.5 	"/>
	<polygon points="467,156.3 541,156.3 547.3,138 460.7,138 	"/>
	<rect x="0" y="241.6" width="126" height="18.2"/>
	<polygon points="503.1,259.8 504.9,259.8 511.3,241.6 496.7,241.6 	"/>
	<rect x="396" y="172.5" width="54" height="18.2"/>
	<rect x="396" y="138" width="54" height="18.2"/>
	<rect x="360" y="241.6" width="90" height="18.2"/>
	<rect x="360" y="207.1" width="90" height="18.2"/>
	<polygon points="491,225.3 517,225.3 523.3,207.1 484.7,207.1 	"/>
	<rect x="558" y="172.5" width="54" height="18.2"/>
	<rect x="558" y="138" width="54" height="18.2"/>
	<rect x="558" y="241.6" width="90" height="18.2"/>
	<rect x="558" y="207.1" width="90" height="18.2"/>
	<polygon points="486,69 396,69 396,87.2 492.5,87.2 	"/>
	<polygon points="509.7,103.5 504,119.9 498.3,103.5 396,103.5 396,121.7 450,121.7 450,107.4 455,121.7 553,121.7 558,107.4 
		558,107.5 558,107.5 558,121.7 612,121.7 612,103.5 	"/>
	<polygon points="461.6,0 360,0 360,18.2 468,18.2 	"/>
	<polygon points="473.8,34.5 360,34.5 360,52.7 480.3,52.7 	"/>
	<polygon points="522,69 612,69 612,87.2 515.5,87.2 	"/>
	<polygon points="546.4,0 648,0 648,18.2 540,18.2 	"/>
	<polygon points="534.2,34.5 648,34.5 648,52.7 527.7,52.7 	"/>
</g>
<path d="M667.6,246.2c0-7.8,6.4-14.2,14.2-14.2c7.8,0,14.2,6.4,14.2,14.2c0,7.9-6.3,14.3-14.2,14.3
	C674,260.5,667.6,254.1,667.6,246.2z M693.8,246.2c0-6.9-5-12.4-11.9-12.4c-6.9,0-12,5.4-12,12.4c0,7,5.1,12.4,12,12.4
	C688.8,258.6,693.8,253.2,693.8,246.2z M689,254.2h-2.3l-4.5-7.3h-3.6v7.3h-1.9v-15.9h6.9c4.2,0,5.6,1.6,5.6,4.2
	c0,3.1-2.2,4.3-5,4.4L689,254.2z M681.5,245.3c2.2,0,5.5,0.4,5.5-2.9c0-2.5-2-2.8-4-2.8h-4.5v5.6H681.5z"/>
</svg>
